<svg width="39" height="39" viewBox="0 0 39 39" fill="none" xmlns="http://www.w3.org/2000/svg">
<circle cx="19.5" cy="19.5" r="19.5" fill="black"/>
<path d="M19.75 26.075H19.075L13.85 13.425C13.55 12.725 13.3083 12.1083 13.125 11.575L12.875 13.475L10.825 27H9.6L12.55 8.975H13.25L18.825 22.225C19.1083 22.8417 19.3333 23.425 19.5 23.975C19.55 23.7917 19.8083 23.2167 20.275 22.25L26.5 8.975H27.175L29.9 27H28.65L26.7 13.425C26.5667 12.575 26.5 11.9333 26.5 11.5C26.4833 11.5167 26.4417 11.6 26.375 11.75C26.325 11.8833 26.225 12.1167 26.075 12.45C25.9417 12.7667 25.8 13.1 25.65 13.45L19.75 26.075Z" fill="white"/>
<path d="M19.75 26.075V26.575H20.0682L20.203 26.2867L19.75 26.075ZM19.075 26.075L18.6129 26.2659L18.7405 26.575H19.075V26.075ZM13.85 13.425L14.3122 13.2341L14.3096 13.228L13.85 13.425ZM13.125 11.575L13.5978 11.4125L12.6293 11.5098L13.125 11.575ZM12.875 13.475L13.3694 13.5499L13.3707 13.5402L12.875 13.475ZM10.825 27V27.5H11.2549L11.3194 27.0749L10.825 27ZM9.6 27L9.10656 26.9192L9.01152 27.5H9.6V27ZM12.55 8.975V8.475H12.1252L12.0566 8.89424L12.55 8.975ZM13.25 8.975L13.7109 8.78109L13.5821 8.475H13.25V8.975ZM18.825 22.225L18.3641 22.4189L18.3673 22.4264L18.3707 22.4337L18.825 22.225ZM19.5 23.975L19.0215 24.12L19.5253 25.7826L19.9824 24.1066L19.5 23.975ZM20.275 22.25L20.7253 22.4674L20.7277 22.4623L20.275 22.25ZM26.5 8.975V8.475H26.1822L26.0473 8.76272L26.5 8.975ZM27.175 8.975L27.6694 8.90026L27.6051 8.475H27.175V8.975ZM29.9 27V27.5H30.4813L30.3944 26.9253L29.9 27ZM28.65 27L28.1551 27.0711L28.2167 27.5H28.65V27ZM26.7 13.425L27.195 13.3539L27.194 13.3475L26.7 13.425ZM26.5 11.5H27V10.2929L26.1464 11.1464L26.5 11.5ZM26.375 11.75L25.9181 11.5469L25.9121 11.5605L25.9068 11.5744L26.375 11.75ZM26.075 12.45L25.6189 12.2448L25.6142 12.256L26.075 12.45ZM25.65 13.45L26.103 13.6617L26.1064 13.6544L26.1096 13.647L25.65 13.45ZM19.75 25.575H19.075V26.575H19.75V25.575ZM19.5371 25.8841L14.3121 13.2341L13.3879 13.6159L18.6129 26.2659L19.5371 25.8841ZM14.3096 13.228C14.0129 12.5357 13.7761 11.9309 13.5978 11.4125L12.6522 11.7375C12.8406 12.2857 13.0871 12.9143 13.3904 13.622L14.3096 13.228ZM12.6293 11.5098L12.3793 13.4098L13.3707 13.5402L13.6207 11.6402L12.6293 11.5098ZM12.3806 13.4001L10.3306 26.9251L11.3194 27.0749L13.3694 13.5499L12.3806 13.4001ZM10.825 26.5H9.6V27.5H10.825V26.5ZM10.0934 27.0808L13.0434 9.05576L12.0566 8.89424L9.10656 26.9192L10.0934 27.0808ZM12.55 9.475H13.25V8.475H12.55V9.475ZM12.7891 9.16891L18.3641 22.4189L19.2859 22.0311L13.7109 8.78109L12.7891 9.16891ZM18.3707 22.4337C18.6461 23.0333 18.8625 23.5953 19.0215 24.12L19.9785 23.83C19.8042 23.2547 19.5705 22.65 19.2793 22.0162L18.3707 22.4337ZM19.9824 24.1066C19.9951 24.0598 20.0543 23.9074 20.1873 23.6112C20.3138 23.3297 20.4928 22.949 20.7253 22.4674L19.8247 22.0326C19.5906 22.5177 19.4071 22.9078 19.2752 23.2013C19.1499 23.4801 19.0549 23.7069 19.0176 23.8434L19.9824 24.1066ZM20.7277 22.4623L26.9527 9.18728L26.0473 8.76272L19.8223 22.0377L20.7277 22.4623ZM26.5 9.475H27.175V8.475H26.5V9.475ZM26.6806 9.04974L29.4056 27.0747L30.3944 26.9253L27.6694 8.90026L26.6806 9.04974ZM29.9 26.5H28.65V27.5H29.9V26.5ZM29.1449 26.9289L27.1949 13.3539L26.2051 13.4961L28.1551 27.0711L29.1449 26.9289ZM27.194 13.3475C27.0615 12.5033 27 11.893 27 11.5H26C26 11.9736 26.0718 12.6466 26.206 13.5025L27.194 13.3475ZM26.1464 11.1464C26.0915 11.2014 26.0575 11.2617 26.0509 11.2731C26.036 11.2987 26.0217 11.326 26.009 11.3514C25.9832 11.4031 25.9526 11.4694 25.9181 11.5469L26.8319 11.9531C26.8641 11.8806 26.8876 11.8303 26.9035 11.7986C26.9116 11.7824 26.9151 11.7763 26.9147 11.7769C26.9145 11.7772 26.911 11.7833 26.9046 11.7926C26.9013 11.7975 26.8959 11.8051 26.8886 11.8143C26.8817 11.8229 26.87 11.8372 26.8536 11.8536L26.1464 11.1464ZM25.9068 11.5744C25.8632 11.6909 25.7694 11.9108 25.619 12.2448L26.531 12.6552C26.6806 12.3226 26.7868 12.0758 26.8432 11.9256L25.9068 11.5744ZM25.6142 12.256C25.4813 12.5716 25.3401 12.9039 25.1904 13.253L26.1096 13.647C26.2599 13.2961 26.402 12.9618 26.5358 12.644L25.6142 12.256ZM25.197 13.2383L19.297 25.8633L20.203 26.2867L26.103 13.6617L25.197 13.2383Z" fill="white"/>
</svg>
