 <svg
      id="name"
      width="1082"
      height="78"
      viewBox="0 0 1082 78"
      fill="none"
      xmlns="http://www.w3.org/2000/svg"
    >
      <path
        d="M3.672 73V4.36001H35.544V8.39201H8.28V33.64H32.952V37.576H8.28V68.968H36.6V73H3.672Z"
        stroke="black"
        stroke-width="2"
      />
      <path
        d="M87.495 69.448H84.903L64.839 20.872C63.687 18.184 62.759 15.816 62.055 13.768L61.095 21.064L53.223 73H48.519L59.847 3.78401H62.535L83.943 54.664C85.031 57.032 85.895 59.272 86.535 61.384C86.727 60.68 87.719 58.472 89.511 54.76L113.415 3.78401H116.007L126.471 73H121.671L114.183 20.872C113.671 17.608 113.415 15.144 113.415 13.48C113.351 13.544 113.191 13.864 112.935 14.44C112.743 14.952 112.359 15.848 111.783 17.128C111.271 18.344 110.727 19.624 110.151 20.968L87.495 69.448Z"
        stroke="black"
        stroke-width="2"
      />
      <path
        d="M177.776 69.448H175.184L155.12 20.872C153.968 18.184 153.04 15.816 152.336 13.768L151.376 21.064L143.504 73H138.8L150.128 3.78401H152.816L174.224 54.664C175.312 57.032 176.176 59.272 176.816 61.384C177.008 60.68 178 58.472 179.792 54.76L203.696 3.78401H206.288L216.752 73H211.952L204.464 20.872C203.952 17.608 203.696 15.144 203.696 13.48C203.632 13.544 203.472 13.864 203.216 14.44C203.024 14.952 202.64 15.848 202.064 17.128C201.552 18.344 201.008 19.624 200.432 20.968L177.776 69.448Z"
        stroke="black"
        stroke-width="2"
      />
      <path
        d="M239.258 49.192L229.37 73H224.473L253.37 3.88001H256.057L285.049 73H279.866L269.978 49.192H239.258ZM254.426 11.56C254.362 11.624 254.234 12.008 254.042 12.712C253.146 15.464 252.281 17.8 251.449 19.72L240.889 45.256H268.345L257.785 19.816C255.545 14.952 254.426 12.2 254.426 11.56Z"
        stroke="black"
        stroke-width="2"
       />
      <path
        d="M303.682 15.304L303.874 23.464V73H299.266V3.78401H301.378L346.594 55.912C349.666 59.56 352.034 62.472 353.698 64.648C353.442 61.576 353.314 58.056 353.314 54.088V4.36001H357.922V73.576H355.81L309.73 20.488C306.53 16.84 304.482 14.408 303.586 13.192L303.682 15.304Z"
        stroke="black"
        stroke-width="2"
      />
      <path
        d="M429.538 66.376C425.122 71.56 418.402 74.152 409.378 74.152C400.354 74.152 393.602 71.528 389.122 66.28C384.706 61.032 382.498 53.864 382.498 44.776V4.36001H387.106V44.776C387.106 61.672 394.498 70.12 409.282 70.12C424.13 70.12 431.554 61.672 431.554 44.776V4.36001H436.162V44.776C436.162 53.928 433.954 61.128 429.538 66.376Z"
        stroke="black"
        stroke-width="2"
      />
      <path
        d="M460.703 73V4.36001H492.575V8.39201H465.311V33.64H489.983V37.576H465.311V68.968H493.631V73H460.703Z"
        stroke="black"
        stroke-width="2"
      />
      <path d="M512.078 73V4.36001H516.686V68.776H548.27V73H512.078Z"
      stroke="black" stroke-width="2" />
      <path
        d="M630.12 69.448H627.528L607.464 20.872C606.312 18.184 605.384 15.816 604.68 13.768L603.72 21.064L595.848 73H591.144L602.472 3.78401H605.16L626.568 54.664C627.656 57.032 628.52 59.272 629.16 61.384C629.352 60.68 630.344 58.472 632.136 54.76L656.04 3.78401H658.632L669.096 73H664.296L656.808 20.872C656.296 17.608 656.04 15.144 656.04 13.48C655.976 13.544 655.816 13.864 655.56 14.44C655.368 14.952 654.984 15.848 654.408 17.128C653.896 18.344 653.352 19.624 652.776 20.968L630.12 69.448Z"
        stroke="black"
        stroke-width="2"
      />
      <path
        d="M693.425 63.88C687.089 57.032 683.921 48.616 683.921 38.632C683.921 28.648 687.089 20.264 693.425 13.48C699.825 6.63201 707.889 3.20801 717.617 3.20801C727.345 3.20801 735.409 6.63201 741.809 13.48C748.209 20.264 751.409 28.648 751.409 38.632C751.409 48.616 748.209 57.032 741.809 63.88C735.409 70.728 727.345 74.152 717.617 74.152C707.889 74.152 699.825 70.728 693.425 63.88ZM696.881 16.456C691.569 22.408 688.913 29.8 688.913 38.632C688.913 47.464 691.569 54.888 696.881 60.904C702.257 66.92 709.169 69.928 717.617 69.928C726.129 69.928 733.041 66.92 738.353 60.904C743.729 54.888 746.417 47.464 746.417 38.632C746.417 29.8 743.729 22.408 738.353 16.456C733.041 10.44 726.129 7.43201 717.617 7.43201C709.105 7.43201 702.193 10.44 696.881 16.456Z"
        stroke="black"
        stroke-width="2"
      />
      <path
        d="M777.119 15.304L777.311 23.464V73H772.703V3.78401H774.815L820.031 55.912C823.103 59.56 825.471 62.472 827.135 64.648C826.879 61.576 826.751 58.056 826.751 54.088V4.36001H831.359V73.576H829.247L783.167 20.488C779.967 16.84 777.919 14.408 777.023 13.192L777.119 15.304Z"
        stroke="black"
        stroke-width="2"
      />
      <path
        d="M856.703 73V4.36001H888.575V8.39201H861.311V33.64H885.983V37.576H861.311V68.968H889.631V73H856.703Z"
        stroke="black"
        stroke-width="2"
      />
      <path
        d="M959.822 73V38.632H912.686V73H908.078V4.36001H912.686V34.504H959.822V4.36001H964.43V73H959.822Z"
        stroke="black"
        stroke-width="2"
      />
      <path
        d="M989.734 73V4.36001H994.343V73H989.734Z"
        stroke="black"
        stroke-width="2"
      />
      <path
        d="M1024.06 15.304L1024.25 23.464V73H1019.64V3.78401H1021.75L1066.97 55.912C1070.04 59.56 1072.41 62.472 1074.07 64.648C1073.82 61.576 1073.69 58.056 1073.69 54.088V4.36001H1078.3V73.576H1076.18L1030.1 20.488C1026.9 16.84 1024.86 14.408 1023.96 13.192L1024.06 15.304Z"
        stroke="black"
        stroke-width="2"
      />
    </svg>